<svg width="146" height="30" viewBox="0 0 146 30" fill="none" xmlns="http://www.w3.org/2000/svg">
<g clip-path="url(#clip0_1_530)">
<path d="M9.76 23.42H4.58C3.26 23.42 2.68 23.44 1.84 23.48C1.96 22.6 2 22.02 2 20.66V9.8C2 8.8 1.96 8 1.84 7.1C2.84 7.16 3.06 7.16 4.56 7.16H9.54C12.72 7.16 14.52 8.6 14.52 11.18C14.52 12.44 14.14 13.36 13.38 14.04C12.98 14.42 12.62 14.6 11.88 14.88C12.8 15.12 13.3 15.36 13.82 15.82C14.66 16.58 15.08 17.6 15.08 18.94C15.08 21.82 13.18 23.42 9.76 23.42ZM5.28 13.62H9.1C10.42 13.62 11.2 12.9 11.2 11.74C11.2 10.56 10.46 9.92 9.08 9.92H5.28V13.62ZM5.28 16.32V20.64H9.26C10.78 20.64 11.66 19.84 11.66 18.46C11.66 17.08 10.78 16.32 9.22 16.32H5.28ZM22.8883 23.82C19.0683 23.82 16.6483 21.36 16.6483 17.5C16.6483 13.64 19.0883 11.18 22.9083 11.18C26.7283 11.18 29.1483 13.62 29.1483 17.46C29.1483 21.3 26.6683 23.82 22.8883 23.82ZM22.9283 13.7C21.0083 13.7 19.8283 15.12 19.8283 17.46C19.8283 19.82 20.9883 21.26 22.9083 21.26C24.8283 21.26 25.9683 19.86 25.9683 17.52C25.9683 15.12 24.8483 13.7 22.9283 13.7ZM36.7164 23.82C32.8964 23.82 30.4764 21.36 30.4764 17.5C30.4764 13.64 32.9164 11.18 36.7364 11.18C40.5564 11.18 42.9764 13.62 42.9764 17.46C42.9764 21.3 40.4964 23.82 36.7164 23.82ZM36.7564 13.7C34.8364 13.7 33.6564 15.12 33.6564 17.46C33.6564 19.82 34.8164 21.26 36.7364 21.26C38.6564 21.26 39.7964 19.86 39.7964 17.52C39.7964 15.12 38.6764 13.7 36.7564 13.7ZM44.8045 7.16H48.2245C48.1245 7.94 48.0845 8.72 48.0845 9.94V16.08L50.7045 13.48C51.6245 12.56 52.0045 12.12 52.3445 11.58H56.8445C55.9045 12.4 55.7845 12.52 54.8045 13.48L51.9245 16.22L55.3045 20.98C56.3645 22.48 56.5245 22.72 57.1245 23.42H52.8245C52.5645 22.68 52.2045 22.04 51.5045 20.96L49.6645 18.12L48.0845 19.64V20.68C48.0845 22.14 48.1245 22.64 48.2445 23.42H44.8045C44.9245 22.54 44.9645 21.84 44.9645 20.62V9.94C44.9645 8.68 44.9245 7.92 44.8045 7.16ZM66.6936 23.42H61.5136C60.1936 23.42 59.6136 23.44 58.7736 23.48C58.8936 22.6 58.9336 22.02 58.9336 20.66V9.8C58.9336 8.8 58.8936 8 58.7736 7.1C59.7736 7.16 59.9936 7.16 61.4936 7.16H66.4736C69.6536 7.16 71.4536 8.6 71.4536 11.18C71.4536 12.44 71.0736 13.36 70.3136 14.04C69.9136 14.42 69.5536 14.6 68.8136 14.88C69.7336 15.12 70.2336 15.36 70.7536 15.82C71.5936 16.58 72.0136 17.6 72.0136 18.94C72.0136 21.82 70.1136 23.42 66.6936 23.42ZM62.2136 13.62H66.0336C67.3536 13.62 68.1336 12.9 68.1336 11.74C68.1336 10.56 67.3936 9.92 66.0136 9.92H62.2136V13.62ZM62.2136 16.32V20.64H66.1936C67.7136 20.64 68.5936 19.84 68.5936 18.46C68.5936 17.08 67.7136 16.32 66.1536 16.32H62.2136ZM79.8219 23.82C76.0019 23.82 73.5819 21.36 73.5819 17.5C73.5819 13.64 76.0219 11.18 79.8419 11.18C83.6619 11.18 86.0819 13.62 86.0819 17.46C86.0819 21.3 83.6019 23.82 79.8219 23.82ZM79.8619 13.7C77.9419 13.7 76.7619 15.12 76.7619 17.46C76.7619 19.82 77.9219 21.26 79.8419 21.26C81.7619 21.26 82.9019 19.86 82.9019 17.52C82.9019 15.12 81.7819 13.7 79.8619 13.7ZM95.63 23.42V22.38C94.43 23.3 93.41 23.64 91.79 23.64C90.37 23.64 89.35 23.34 88.63 22.7C87.89 22.08 87.49 21.16 87.49 20.1C87.49 18.16 88.85 16.8 91.33 16.24C92.49 16 93.09 15.94 95.63 15.86V15.06C95.63 14.08 94.95 13.6 93.59 13.6C92.81 13.6 92.09 13.78 91.71 14.06C91.35 14.32 91.17 14.6 90.95 15.16L87.79 14.64C88.21 13.48 88.59 12.94 89.29 12.4C90.29 11.62 91.73 11.24 93.61 11.24C95.57 11.24 96.91 11.64 97.79 12.48C98.47 13.12 98.73 13.9 98.73 15.34V20.76C98.73 21.92 98.77 22.52 98.87 23.42H95.63ZM95.63 18.76V18C93.81 18.06 92.97 18.16 92.07 18.44C91.15 18.72 90.67 19.26 90.67 20.02C90.67 20.86 91.27 21.32 92.35 21.32C93.21 21.32 94.19 20.98 94.81 20.46C95.39 19.96 95.63 19.46 95.63 18.76ZM110.271 11.58L109.451 14.66C108.611 14.38 108.231 14.32 107.591 14.32C106.531 14.32 105.751 14.62 105.191 15.26C104.771 15.76 104.591 16.22 104.491 17.16V20.62C104.491 21.82 104.531 22.56 104.631 23.42H101.191C101.311 22.42 101.351 21.8 101.351 20.62V14.38C101.351 13.04 101.311 12.42 101.191 11.58H104.491V13.22C105.331 11.96 106.611 11.36 108.391 11.36C108.991 11.36 109.411 11.4 110.271 11.58ZM120.761 23.42V22.68C120.761 22.46 120.781 22.4 120.801 22.08C119.721 23.26 118.541 23.74 116.721 23.74C115.101 23.74 113.821 23.28 112.861 22.34C111.721 21.2 111.121 19.52 111.121 17.48C111.121 13.66 113.281 11.28 116.721 11.28C117.801 11.28 118.721 11.5 119.601 11.98C120.121 12.26 120.361 12.46 120.801 12.94L120.781 12.66C120.761 12.38 120.761 12.14 120.761 11.76V10.06C120.761 8.76 120.721 8.02 120.601 7.16H124.021C123.901 8.08 123.861 8.88 123.861 10.04V20.5C123.861 21.78 123.901 22.46 124.021 23.42H120.761ZM120.701 17.46C120.701 15.28 119.321 13.84 117.261 13.84C115.501 13.84 114.321 15.32 114.321 17.5C114.321 18.72 114.681 19.76 115.341 20.38C115.841 20.86 116.621 21.16 117.341 21.16C118.161 21.16 119.041 20.84 119.581 20.36C120.281 19.72 120.701 18.62 120.701 17.46Z" fill="#006473"/>
<circle cx="129.596" cy="8.80808" r="2.47059" fill="#50ADBB"/>
<ellipse cx="129.596" cy="14.7375" rx="2.47059" ry="2.47059" fill="#50ADBB" fill-opacity="0.6"/>
<ellipse cx="129.596" cy="20.6669" rx="2.47059" ry="2.47059" fill="#50ADBB" fill-opacity="0.3"/>
<ellipse cx="135.525" cy="8.80808" rx="2.47059" ry="2.47059" fill="#50ADBB" fill-opacity="0.01"/>
<circle cx="135.525" cy="14.7375" r="2.47059" fill="#50ADBB" fill-opacity="0.9"/>
<ellipse cx="135.525" cy="20.6669" rx="2.47059" ry="2.47059" fill="#50ADBB" fill-opacity="0.6"/>
<ellipse cx="141.454" cy="8.80808" rx="2.47059" ry="2.47059" fill="#50ADBB" fill-opacity="0.01"/>
<circle cx="141.454" cy="14.7375" r="2.47059" fill="#50ADBB" fill-opacity="0.01"/>
<ellipse cx="141.454" cy="20.6669" rx="2.47059" ry="2.47059" fill="#50ADBB"/>
</g>
<defs>
<clipPath id="clip0_1_530">
<rect width="145" height="30" fill="white" transform="translate(0.5)"/>
</clipPath>
</defs>
</svg>
